:SAMPLES-PER-SECOND 30
:FULLY-SPECIFIED
:DEGREES
200
root  -55.1594 40.2278 15.2429 175.601 1.6857 175.845
RightUpLeg  -15.1791 -25.2298 -4.2385
RightLeg  18.3913 -3.10591 -1.3783
RightFoot  -6.01462 0.0805137 -2.59649
RightToes  -1.33073e-015 0 -3.6325e-017
Spine  7.73197 -0.406051 0.151079
Spine1  11.3771 0.944796 -5.40429
HEad  -12.5828 -23.4541 12.7834
LeftShoulder1  0.298576 2.57784 -26.1026
LeftArm  -10.4249 12.1548 -31.9847
LeftForeArm  79.2768 -78.6946 -101.587
LeftHand  0.0231632 2.6946 -1.80914
RightShoulder  -0.23322 -4.22026 25.1098
RightArm  -16.3373 -12.3105 43.6383
RightForeArm  115.146 74.7374 134.684
RightHand  0.0148383 -3.12773 1.3858
LeftUpLeg  3.51951 8.56149 -0.0222966
LeftLeg  10.8729 21.5232 1.64641
LeftFoot  -9.40752 0.0751365 -1.09239
LeftToes  -1.03319e-009 7.52634e-011 -3.26162e-012
201
root  -54.8336 40.2363 15.1276 176.003 6.01741 175.558
RightUpLeg  -15.2192 -29.1833 -4.8295
RightLeg  18.4847 -6.40257 -2.58043
RightFoot  -7.0024 0.0896793 -3.63565
RightToes  -1.33073e-015 0 -3.6325e-017
Spine  6.71268 -0.664791 -1.25206
Spine1  11.6202 -0.0374886 -3.16596
HEad  -13.0168 -25.2506 12.0529
LeftShoulder1  0.237643 2.79055 -27.1168
LeftArm  -9.83922 11.4049 -31.8691
LeftForeArm  79.1927 -78.7779 -100.484
LeftHand  0.0195081 3.13307 -2.06072
RightShoulder  -0.264351 -4.32293 24.973
RightArm  -16.8942 -13.2939 42.4001
RightForeArm  117.035 73.932 137.435
RightHand  -0.0261057 -3.96291 -0.284985
LeftUpLeg  3.81667 8.70643 0.119933
LeftLeg  10.589 25.0355 1.97532
LeftFoot  -9.00848 0.0867532 -1.59734
LeftToes  -1.03319e-009 7.52634e-011 -3.26162e-012
202
root  -54.4146 40.2862 14.9185 176.443 10.8383 176.09
RightUpLeg  -14.0927 -31.165 -4.35711
RightLeg  16.42 -11.7524 -3.52752
RightFoot  -7.26596 0.107287 -4.47741
RightToes  -1.33073e-015 0 -3.6325e-017
Spine  5.82659 -0.843537 -0.677255
Spine1  11.6447 -0.40037 -2.4597
HEad  -14.0159 -26.1561 11.8382
LeftShoulder1  0.284679 2.64469 -26.9515
LeftArm  -9.73398 11.1624 -33.0426
LeftForeArm  76.7578 -78.8814 -97.6492
LeftHand  0.0241002 2.7234 -2.25522
RightShoulder  -0.335549 -4.54363 25.1729
RightArm  -17.3054 -14.7309 41.8202
RightForeArm  119.055 72.9493 140.388
RightHand  -0.0258735 -2.84553 -0.523755
LeftUpLeg  4.64491 9.47995 1.4556
LeftLeg  9.86061 28.5466 1.89819
LeftFoot  -8.19444 0.107457 -2.12491
LeftToes  -1.03319e-009 7.52634e-011 -3.26162e-012
203
root  -53.9129 40.3089 14.6396 176.97 16.0217 176.548
RightUpLeg  -12.6984 -30.4032 -4.16402
RightLeg  14.7296 -17.7095 -3.01643
RightFoot  -5.89682 0.0966214 -2.83577
RightToes  -1.33073e-015 0 -3.6325e-017
Spine  5.21002 -0.997785 -0.840669
Spine1  11.4249 -1.01675 -0.849267
HEad  -14.767 -25.7138 12.2059
LeftShoulder1  0.237948 2.79296 -27.355
LeftArm  -9.95524 11.1025 -33.4196
LeftForeArm  74.7695 -78.9271 -95.6248
LeftHand  0.021439 2.68781 -1.62588
RightShoulder  -0.382869 -4.68583 25.3944
RightArm  -16.729 -14.4994 40.7077
RightForeArm  119.185 72.579 141.295
RightHand  -0.039854 -3.39947 -1.15278
LeftUpLeg  5.8927 10.1857 2.66697
LeftLeg  8.64369 32.8933 1.61627
LeftFoot  -7.02742 0.140151 -2.59667
LeftToes  -1.03319e-009 7.52634e-011 -3.26162e-012
204
root  -53.3149 40.2876 14.2869 177.481 21.0989 177.081
RightUpLeg  -11.4714 -30.796 -3.16497
RightLeg  13.4805 -19.1467 -1.13998
RightFoot  -5.79022 0.0911792 -2.65616
RightToes  -1.33073e-015 0 -3.6325e-017
Spine  4.08192 -1.38776 -1.32367
Spine1  11.861 -1.92834 0.832405
HEad  -14.9539 -25.075 11.3372
LeftShoulder1  0.152875 3.05673 -27.9929
LeftArm  -10.6884 11.4359 -33.495
LeftForeArm  74.195 -78.9663 -94.546
LeftHand  0.02311 2.64598 -1.99584
RightShoulder  -0.269377 -4.33382 25.1775
RightArm  -16.4616 -14.6031 40.7865
RightForeArm  118.863 72.2705 141.952
RightHand  -0.065113 -2.74822 -2.28094
LeftUpLeg  7.05573 10.8085 3.94287
LeftLeg  8.61959 36.8001 1.95703
LeftFoot  -6.0831 0.204009 -3.63162
LeftToes  -1.03319e-009 7.52634e-011 -3.26162e-012
205
root  -52.6146 40.2543 13.8902 178.079 26.4382 177.79
RightUpLeg  -10.1937 -24.8373 -2.44717
RightLeg  11.8916 -20.6541 1.42527
RightFoot  -4.77914 0.195742 -3.9849
RightToes  -1.33073e-015 0 -3.6325e-017
Spine  3.24484 -1.51281 -0.0436984
Spine1  11.8541 -2.00795 0.92348
HEad  -14.8496 -24.5231 10.6133
LeftShoulder1  0.185922 2.95515 -27.7452
LeftArm  -11.1049 12.2574 -33.6993
LeftForeArm  74.8864 -78.9663 -95.048
LeftHand  0.0245465 2.67672 -2.35261
RightShoulder  -0.305863 -4.45026 25.1523
RightArm  -16.6877 -15.6476 41.0542
RightForeArm  122.333 71.5269 144.065
RightHand  -0.0493675 -3.10416 -1.71045
LeftUpLeg  8.59771 11.7878 5.59686
LeftLeg  8.76379 40.4352 2.14426
LeftFoot  -5.43663 0.293352 -5.0716
LeftToes  -1.03319e-009 7.52634e-011 -3.26162e-012
206
root  -51.8747 40.1346 13.5081 178.18 31.5718 178.596
RightUpLeg  -9.9302 -20.6865 -0.574836
RightLeg  12.8778 -19.7406 1.16
RightFoot  -5.12964 0.268202 -5.59327
RightToes  -1.33073e-015 0 -3.6325e-017
Spine  3.26026 -1.58399 1.22212
Spine1  11.5249 -2.02688 1.10255
HEad  -14.5217 -23.5743 9.53041
LeftShoulder1  0.275547 2.68917 -27.6704
LeftArm  -11.4825 12.771 -33.681
LeftForeArm  74.9082 -78.9534 -95.2826
LeftHand  0.0233421 2.48793 -1.75446
RightShoulder  -0.28042 -4.3704 25.1132
RightArm  -16.7314 -16.4352 41.1582
RightForeArm  123.69 70.7567 145.769
RightHand  -0.0492601 -3.20245 -1.73007
LeftUpLeg  9.87959 15.2279 7.66776
LeftLeg  11.5764 38.9798 4.47891
LeftFoot  -5.53698 0.299567 -5.19778
LeftToes  -1.03319e-009 7.52634e-011 -3.26162e-012
207
root  -51.1578 39.953 13.1735 178.077 36.6585 179.486
RightUpLeg  -9.69326 -19.7058 1.56788
RightLeg  14.8764 -15.9881 0.45558
RightFoot  -6.47272 0.232272 -6.47358
RightToes  -1.33073e-015 0 -3.6325e-017
Spine  3.87232 -1.65991 2.84195
Spine1  11.2459 -1.88137 0.8402
HEad  -14.1611 -21.7633 9.13313
LeftShoulder1  0.212632 2.8816 -28.0208
LeftArm  -11.4876 12.1732 -33.2455
LeftForeArm  74.2383 -78.9508 -94.846
LeftHand  0.0213206 2.66584 -1.6064
RightShoulder  -0.326481 -4.51463 25.1929
RightArm  -16.5682 -15.9684 40.9085
RightForeArm  123.74 70.5113 146.226
RightHand  -0.0465943 -3.62403 -1.83876
LeftUpLeg  9.26234 20.7285 9.85707
LeftLeg  18.7718 29.4689 9.87857
LeftFoot  -5.14307 0.124273 -1.91244
LeftToes  -1.03319e-009 7.52634e-011 -3.26162e-012
208
root  -50.4319 39.7179 12.9019 177.957 41.1013 -179.579
RightUpLeg  -9.18008 -19.4304 3.26336
RightLeg  17.1438 -12.1472 0.117893
RightFoot  -8.29904 0.118824 -6.53475
RightToes  -1.33073e-015 0 -3.6325e-017
Spine  4.29141 -1.94709 3.7261
Spine1  11.6449 -2.07218 1.31697
HEad  -14.0571 -20.5265 8.67948
LeftShoulder1  0.161504 3.03349 -28.1809
LeftArm  -11.8592 11.4438 -32.9995
LeftForeArm  73.1943 -78.9696 -93.7267
LeftHand  0.0211366 2.82586 -1.9231
RightShoulder  -0.340068 -4.55864 25.1652
RightArm  -16.213 -14.9348 41.1433
RightForeArm  123.225 70.6139 145.969
RightHand  -0.0613198 -3.85716 -3.20135
LeftUpLeg  6.95203 18.6185 11.0432
LeftLeg  28.2744 21.9082 12.6193
LeftFoot  -3.24319 -0.0507888 1.07612
LeftToes  -1.03319e-009 7.52634e-011 -3.26162e-012
209
root  -49.7463 39.4781 12.6478 178.225 45.4664 -178.76
RightUpLeg  -8.90328 -18.2428 4.67309
RightLeg  19.2379 -9.29921 -0.0117232
RightFoot  -10.2787 -0.0123388 -6.15382
RightToes  -1.33073e-015 0 -3.6325e-017
Spine  4.54986 -2.04047 5.06504
Spine1  11.7251 -1.79283 1.22962
HEad  -13.5421 -18.5808 7.57177
LeftShoulder1  0.132274 3.1195 -28.2611
LeftArm  -11.9902 10.4618 -33.0856
LeftForeArm  69.6591 -78.9903 -90.219
LeftHand  0.0235066 2.68725 -2.14303
RightShoulder  -0.379075 -4.6847 25.1005
RightArm  -16.2678 -14.2597 41.3406
RightForeArm  123.671 70.8414 145.602
RightHand  -0.0472056 -3.76262 -2.04754
LeftUpLeg  3.79778 13.6509 10.837
LeftLeg  36.12 10.8456 8.65246
LeftFoot  -3.15376 0.0117364 0.0830543
LeftToes  -1.03319e-009 7.52634e-011 -3.26162e-012
